<svg xmlns="http://www.w3.org/2000/svg" width="100" height="100" viewBox="0 0 100 100">
  <g id="Group_12" data-name="Group 12" transform="translate(-442 -194)">
    <g id="Ellipse_2" data-name="Ellipse 2" transform="translate(442 194)" fill="#e8d04d" stroke="#e8d04d" stroke-width="2">
      <circle cx="50" cy="50" r="50" stroke="none"/>
      <circle cx="50" cy="50" r="49" fill="none"/>
    </g>
    <path id="Path_4" data-name="Path 4" d="M252.912,131.26c3.145-4.223,7.06-9.479,4.908-19.708a17.709,17.709,0,0,0-9.03-12.28A28.852,28.852,0,0,0,234.9,95.984a31.028,31.028,0,0,0-7.664.913,21.8,21.8,0,0,0-13.208,10.241,14.955,14.955,0,0,0-1.718,11.595,1.025,1.025,0,0,1-.136.846c-.3.464-.751,1.093-1.271,1.822a32.265,32.265,0,0,0-3.79,6.151,2.669,2.669,0,0,0,1.81,3.5c.144.043.829.305,1.2.445.385.147.718.272.806.3.955.3.9,4.273.871,6.645-.009.61-.017,1.224-.017,1.832,0,3.124,2.029,4.989,5.427,4.989a11.41,11.41,0,0,0,2.374-.262,6.359,6.359,0,0,1,1.316-.153c1.632,0,2.3.741,2.3,2.559,0,.551.016,1.048.046,1.481a3.432,3.432,0,0,0,2.186,2.947,29.686,29.686,0,0,0,10.31,1.612h0a40.837,40.837,0,0,0,13.77-2.434,2.369,2.369,0,0,0,1.315-3.29,14.207,14.207,0,0,1-1.374-10.4c.552-2.147,1.9-3.956,3.461-6.053Z" transform="translate(259.304 119.288)" fill="none" stroke="#1c1c1c" stroke-miterlimit="10" stroke-width="2" fill-rule="evenodd"/>
    <line id="Line_13" data-name="Line 13" x1="35.759" transform="translate(447.5 238.5)" fill="none" stroke="#fff" stroke-width="2" stroke-dasharray="2 2"/>
  </g>
</svg>
