<svg xmlns="http://www.w3.org/2000/svg" width="100" height="100" viewBox="0 0 100 100">
  <g id="Group_11" data-name="Group 11" transform="translate(-567 -43)">
    <g id="Ellipse_1" data-name="Ellipse 1" transform="translate(567 43)" fill="rgba(232,208,77,0.2)" stroke="#e8d04d" stroke-width="1">
      <circle cx="50" cy="50" r="50" stroke="none"/>
      <circle cx="50" cy="50" r="49.5" fill="none"/>
    </g>
    <g id="Group_10" data-name="Group 10" transform="translate(574.77 78.721)">
      <path id="Path_2" data-name="Path 2" d="M140.18,220.664c-14.185.011-28.3,4.87-41.823,14.213-.014.01-.046.009-.06.019a1.626,1.626,0,0,0-.18.133,1.421,1.421,0,0,0-.21.19l-.03.019c-.021.025-.041.05-.06.076l-.029.038q-.032.038-.06.076c-.011.025-.021.05-.03.076l-.029.038a.346.346,0,0,0,0,.038.794.794,0,0,0-.03.095v.019a.821.821,0,0,0-.03.095v.019a.776.776,0,0,0,.03.228.353.353,0,0,0,0,.038.811.811,0,0,0,.03.076l.029.019a.853.853,0,0,0,.03.095l.03.019a1.271,1.271,0,0,0,.359.379,1.764,1.764,0,0,0,.27.171c13.512,9.328,27.619,14.184,41.794,14.195s28.026-4.834,41.105-14.195c.031-.018.061-.037.09-.057s.046-.009.06-.019h0a1.517,1.517,0,0,0,.15-.114c.042-.024.082-.05.12-.076v-.019c.032-.025.062-.05.09-.076v-.019a1.217,1.217,0,0,0,.09-.095v-.019q.048-.046.09-.1v-.019a.911.911,0,0,0,.06-.095v-.019a.865.865,0,0,0,.03-.095V236a.846.846,0,0,0,0-.114v-.019a.807.807,0,0,0,0-.095v-.019a.822.822,0,0,0-.06-.228V235.5a.974.974,0,0,0-.06-.095v-.019a1.276,1.276,0,0,0-.18-.19v-.019c-.028-.026-.058-.052-.09-.076v-.019a1.774,1.774,0,0,0-.42-.266c-13.065-9.343-26.927-14.167-41.074-14.157Zm0,2.429c12.5-.009,25.045,4.132,37.387,12.752-12.339,8.615-24.893,12.761-37.387,12.753-12.479-.009-25.249-4.185-37.987-12.753,12.738-8.57,25.508-12.744,37.987-12.752Z" transform="translate(-97.607 -220.663)" fill="#e8d04d" fill-rule="evenodd"/>
      <path id="Path_3" data-name="Path 3" d="M260.036,266.32a10.226,10.226,0,1,0,10.226,10.226A10.247,10.247,0,0,0,260.036,266.32Z" transform="translate(-217.796 -261.369)" fill="rgba(232,208,77,0.5)" fill-rule="evenodd"/>
    </g>
    <line id="Line_11" data-name="Line 11" y2="92" transform="translate(617 47.5)" fill="none" stroke="rgba(255,255,255,0.4)" stroke-width="1" stroke-dasharray="2 2"/>
    <line id="Line_12" data-name="Line 12" x2="93" transform="translate(570.5 93)" fill="none" stroke="rgba(255,255,255,0.4)" stroke-width="1" stroke-dasharray="2 2"/>
  </g>
</svg>
