<svg xmlns="http://www.w3.org/2000/svg" width="164" height="164" viewBox="0 0 164 164">
  <g id="Group_5" data-name="Group 5" transform="translate(-72 -703)">
    <g id="Ellipse_3" data-name="Ellipse 3" transform="translate(72 703)" fill="none" stroke="#e8d04d" stroke-width="2" stroke-dasharray="10 5">
      <circle cx="82" cy="82" r="82" stroke="none"/>
      <circle cx="82" cy="82" r="81" fill="none"/>
    </g>
    <path id="Path_1" data-name="Path 1" d="M248.565,74.394a8.885,8.885,0,0,0-11.075,6.5l-8.981,37.832L216.9,76.712a8.273,8.273,0,0,0-16.082,3.849l7.475,36.749c-.838-.838-3.762-1.824-6.5-1.233a8.507,8.507,0,0,0-6.677,8.147,1.06,1.06,0,0,1-.149-.1,8.37,8.37,0,0,0-6.428-1.209,8.509,8.509,0,0,0-6.553,9.929l2.379,12.071v11.659a33.641,33.641,0,0,0,67.282.214,1.235,1.235,0,0,0,.012-.212v-.025a10.206,10.206,0,0,0-.311-2.529l-3.326-13.391c-.984-12.906,1.781-27.853,4.459-42.316.885-4.771,1.719-9.28,2.416-13.666A8.879,8.879,0,0,0,248.566,74.4Zm-46.24,44.112a5.982,5.982,0,0,1,7.125,4.7l1.98,10.015a8.754,8.754,0,0,0-2.155,4.534,8.884,8.884,0,0,0,4.821,9.243,5.977,5.977,0,0,1-11.6,2.442c-.025-.236-.062-.486-.112-.723-2.1-10.57-3.487-17.869-4.671-23.195a6,6,0,0,1,4.61-7.012Zm-13.28,6.839a5.988,5.988,0,0,1,6.8,3.625l3.974,20.118a7.267,7.267,0,0,0,.224.86A5.986,5.986,0,0,1,188.2,151.5c-5.088-25.809-3.43-17.4-3.774-19.146-.012-.05-.012-.087-.025-.137a6.028,6.028,0,0,1,4.646-6.877Zm28.963,62.386a31.19,31.19,0,0,1-31.154-31.154V154.77A8.456,8.456,0,0,0,202,153.3a8.462,8.462,0,0,0,14.563-5.07,33.652,33.652,0,0,0,7.561,2.529c-4.073,3.588-11.735,12.17-9.991,24.7a1.246,1.246,0,0,0,1.233,1.084c.05,0,.112-.012.161-.012a1.259,1.259,0,0,0,1.072-1.408c-1.868-13.354,8.5-22.074,10.837-23.869l.075.075a.4.4,0,0,1,.1.336c-.423,2.915-.648,8.246,2.554,11.2a1.286,1.286,0,0,0,.847.324,1.227,1.227,0,0,0,.909-.4,1.246,1.246,0,0,0-.075-1.769c-2.354-2.167-2.118-6.565-1.769-8.994a2.96,2.96,0,0,0-.635-2.28,3.048,3.048,0,0,0-2.18-1.1H227.2a29.129,29.129,0,0,1-10.837-3.289,9.57,9.57,0,0,1-2.915-1.919,6.3,6.3,0,0,1,6.54-10.339l25.737,8.682v.025l3.438,14.862a31.193,31.193,0,0,1-31.154,31.058ZM252.438,84.212c-.7,4.4-1.532,8.894-2.416,13.653-2.579,13.965-5.244,28.389-4.6,41.2l-24.641-8.309a8.817,8.817,0,0,0-7.175.685l-.5-2.566a1.093,1.093,0,0,0-.012-.4l-9.842-48.407a5.781,5.781,0,0,1,11.236-2.691l12.893,46.69a1.24,1.24,0,0,0,1.209.909h.025a1.224,1.224,0,0,0,1.183-.947L239.92,81.47a6.409,6.409,0,0,1,12.518,2.742Z" transform="translate(-97.037 724.137) rotate(-17)" fill="#fff"/>
  </g>
</svg>
