<svg xmlns="http://www.w3.org/2000/svg" width="712.018" height="94.578" viewBox="0 0 712.018 94.578">
  <g id="Group_6" data-name="Group 6" transform="translate(-34 -480.684)">
    <path id="Union_1" data-name="Union 1" d="M68.442-1276.272l-32.31-32.31q-.485-.405-.941-.861a14.136,14.136,0,0,1-2.23-2.892,14.017,14.017,0,0,1-1.913-7.09,14.016,14.016,0,0,1,1.826-6.94,14.125,14.125,0,0,1,2.316-3.043L68.377-1362.6a14.12,14.12,0,0,1,19.967,0,14.118,14.118,0,0,1,0,19.967l-9.122,9.122h38.765a14.08,14.08,0,0,1,14.08,14.08,14.08,14.08,0,0,1-14.08,14.08H79.141l9.188,9.188a14.061,14.061,0,0,1,0,19.886,14.016,14.016,0,0,1-9.943,4.119A14.019,14.019,0,0,1,68.442-1276.272Z" transform="translate(2.952 1847.416)" fill="#e8d04d"/>
    <rect id="Rectangle_7" data-name="Rectangle 7" width="482.018" height="26.159" rx="13.08" transform="translate(150 514.894)" fill="#e8d04d"/>
    <path id="Union_3" data-name="Union 3" d="M68.442-1276.272l-32.31-32.31q-.485-.405-.941-.861a14.136,14.136,0,0,1-2.23-2.892,14.017,14.017,0,0,1-1.913-7.09,14.016,14.016,0,0,1,1.826-6.94,14.125,14.125,0,0,1,2.316-3.043L68.377-1362.6a14.12,14.12,0,0,1,19.967,0,14.118,14.118,0,0,1,0,19.967l-9.122,9.122h38.765a14.08,14.08,0,0,1,14.08,14.08,14.08,14.08,0,0,1-14.08,14.08H79.141l9.188,9.188a14.061,14.061,0,0,1,0,19.886,14.016,14.016,0,0,1-9.943,4.119A14.019,14.019,0,0,1,68.442-1276.272Z" transform="translate(777.066 -791.469) rotate(180)" fill="#e8d04d"/>
  </g>
</svg>
